HIERARCHY
ROOT Hips
{
	OFFSET 55.310501 45.591206 43.872097
	CHANNELS 6 Xposition Yposition Zposition Zrotation Xrotation Yrotation
	JOINT Chest
	{
		OFFSET -0.153500 1.163101 7.852402
		CHANNELS 6 Xposition Yposition Zposition Zrotation Xrotation Yrotation
		JOINT Chest2
		{
			OFFSET 0.000000 0.000000 3.343300
			CHANNELS 6 Xposition Yposition Zposition Zrotation Xrotation Yrotation
			JOINT Neck
			{
				OFFSET 0.000000 0.000000 7.785500
				CHANNELS 6 Xposition Yposition Zposition Zrotation Xrotation Yrotation
				JOINT Head
				{
					OFFSET 0.000000 0.000000 2.173901
					CHANNELS 6 Xposition Yposition Zposition Zrotation Xrotation Yrotation
					End Site
					{
						OFFSET 0.000000 0.000000 10.528198
					}
				}
			}
			JOINT LeftCollar
			{
				OFFSET 2.676300 -1.652401 4.938301
				CHANNELS 6 Xposition Yposition Zposition Zrotation Xrotation Yrotation
				JOINT LeftShoulder
				{
					OFFSET 4.299000 0.000000 0.000000
					CHANNELS 6 Xposition Yposition Zposition Zrotation Xrotation Yrotation
					JOINT LeftElbow
					{
						OFFSET 0.000000 0.000000 -10.245102
						CHANNELS 6 Xposition Yposition Zposition Zrotation Xrotation Yrotation
						JOINT LeftWrist
						{
							OFFSET 0.000000 0.000000 -12.703300
							CHANNELS 6 Xposition Yposition Zposition Zrotation Xrotation Yrotation
							End Site
							{
								OFFSET 0.000000 0.000000 -2.173901
							}
						}
					}
				}
			}
			JOINT RightCollar
			{
				OFFSET -2.534599 -1.686401 5.195000
				CHANNELS 6 Xposition Yposition Zposition Zrotation Xrotation Yrotation
				JOINT RightShoulder
				{
					OFFSET -4.144100 0.000000 0.000000
					CHANNELS 6 Xposition Yposition Zposition Zrotation Xrotation Yrotation
					JOINT RightElbow
					{
						OFFSET 0.000000 0.000000 -10.116501
						CHANNELS 6 Xposition Yposition Zposition Zrotation Xrotation Yrotation
						JOINT RightWrist
						{
							OFFSET 0.000000 0.000000 -12.937801
							CHANNELS 6 Xposition Yposition Zposition Zrotation Xrotation Yrotation
							End Site
							{
								OFFSET 0.000000 0.000000 -2.173901
							}
						}
					}
				}
			}
		}
	}
	JOINT LeftHip
	{
		OFFSET 2.175598 0.064499 -2.662899
		CHANNELS 6 Xposition Yposition Zposition Zrotation Xrotation Yrotation
		JOINT LeftKnee
		{
			OFFSET 0.000000 -0.000004 -18.585800
			CHANNELS 6 Xposition Yposition Zposition Zrotation Xrotation Yrotation
			JOINT LeftAnkle
			{
				OFFSET 0.000000 0.000000 -18.979500
				CHANNELS 6 Xposition Yposition Zposition Zrotation Xrotation Yrotation
				End Site
				{
					OFFSET 0.000000 -9.264000 0.000000
				}
			}
		}
	}
	JOINT RightHip
	{
		OFFSET -2.092400 -0.058102 -2.581200
		CHANNELS 6 Xposition Yposition Zposition Zrotation Xrotation Yrotation
		JOINT RightKnee
		{
			OFFSET 0.000000 -0.000004 -18.665001
			CHANNELS 6 Xposition Yposition Zposition Zrotation Xrotation Yrotation
			JOINT RightAnkle
			{
				OFFSET 0.000000 0.000000 -18.566601
				CHANNELS 6 Xposition Yposition Zposition Zrotation Xrotation Yrotation
				End Site
				{
					OFFSET 0.000000 -8.497601 0.000000
				}
			}
		}
	}
}
MOTION
Frames: 8
Frame Time: 0.041667
51.298504 39.002201 43.809998 1110.010652 -3.871963 0.381892 -0.153504 1.163103 7.852396 5.453480 15.076044 -2.932941 -0.000004 -0.000004 3.343304 -1.244630 -1.712804 -0.023010 0.000003 -0.000002 7.785509 -9.209383 0.301693 3.959385 -0.000006 0.000002 2.173909 -0.456498 0.343239 -2.705409 2.676291 -1.652398 4.938309 -8.638495 4.201971 3.514458 4.299000 0.000002 -0.000002 -47.668802 -7.504135 -39.914440 -0.000010 0.000003 -10.245101 -3.795137 700.205531 6.108650 -0.000010 -0.000003 -12.703300 1251.280055 -177.401309 547.533645 -2.534597 -1.686394 5.195011 10.152587 4.345549 -4.915302 -4.144104 0.000004 -0.000002 47.756341 11.317005 26.119132 0.000001 0.000008 -10.116503 23.180521 -1.746993 -1.451646 0.000004 0.000008 -12.937803 -386.934560 -354.247133 5.694106 2.175591 0.064501 -2.662899 -356.841894 -1.119776 -4.295038 0.000003 -0.000006 -18.585798 180.702558 -202.648052 -165.561723 -0.000007 -0.000000 -18.979511 369.061622 6.367263 -129.265414 -2.092405 -0.058107 -2.581203 321.440614 -23.412446 -0.308645 -0.000003 -0.000012 -18.665007 -1087.817127 50.578709 8.876134 0.000001 -0.000007 -18.566597 731.099132 16.464338 9.996755
51.298206 38.885601 43.804291 1110.990593 -3.696874 0.269457 -0.153504 1.163097 7.852399 5.768915 14.992866 -2.882999 0.000006 0.000001 3.343307 -1.313553 -1.714782 -0.024817 -0.000004 0.000000 7.785501 -9.891121 0.475909 3.985292 -0.000002 0.000006 2.173906 -0.514668 0.385746 -2.910495 2.676292 -1.652402 4.938302 -8.606557 4.178232 3.168018 4.299002 -0.000004 -0.000004 -47.957077 -7.819248 -39.619465 -0.000008 -0.000004 -10.245105 -4.372213 698.727369 6.119644 -0.000000 -0.000001 -12.703299 1249.092865 -177.398304 547.172465 -2.534602 -1.686399 5.195002 10.292634 4.381467 -4.931420 -4.144094 0.000001 -0.000006 48.184092 10.613428 26.645470 0.000002 0.000004 -10.116497 23.899252 -1.808693 -1.403910 0.000005 0.000007 -12.937797 -385.838643 -354.768358 4.511731 2.175591 0.064497 -2.662903 -356.514127 -1.479252 -4.205391 -0.000006 0.000005 -18.585796 180.045125 -203.014532 -165.592964 -0.000006 0.000001 -18.979513 368.888572 6.358562 -129.477096 -2.092402 -0.058110 -2.581200 321.773763 -23.415347 0.060133 0.000004 -0.000009 -18.665003 -1092.378819 49.049173 10.785968 0.000010 -0.000001 -18.566603 731.731608 16.975735 10.019770
51.295002 38.766708 43.808495 1112.386683 -3.507342 0.122031 -0.153505 1.163105 7.852406 5.670071 14.884247 -2.829561 0.000008 0.000007 3.343305 -1.435296 -1.698236 -0.027747 -0.000004 0.000003 7.785504 -10.491023 0.645731 4.056160 0.000002 -0.000006 2.173903 -0.658238 0.407476 -3.096359 2.676293 -1.652399 4.938306 -8.488388 4.154601 3.247596 4.299006 0.000002 -0.000011 -48.345291 -7.778670 -39.516882 -0.000003 -0.000002 -10.245104 -4.794002 697.286253 6.103392 -0.000004 0.000001 -12.703293 1246.803386 -177.411855 546.948872 -2.534605 -1.686399 5.195003 10.434256 4.439924 -4.864291 -4.144108 -0.000007 -0.000005 48.598186 9.831321 27.222523 0.000001 -0.000001 -10.116503 24.684452 -1.860130 -1.335473 0.000007 0.000000 -12.937803 -384.811137 -355.541426 2.798444 2.175593 0.064504 -2.662905 -356.687751 -1.846500 -4.029945 -0.000016 0.000001 -18.585800 179.350194 -203.398539 -165.636008 -0.000003 0.000002 -18.979513 368.855651 6.492364 -129.621172 -2.092394 -0.058094 -2.581201 321.501075 -23.496491 0.437399 -0.000007 -0.000006 -18.664995 -1095.430657 48.038520 11.928444 0.000004 -0.000012 -18.566601 731.930393 17.365278 10.075187
51.290199 38.645504 43.820095 1113.109481 -3.413805 0.118131 -0.153491 1.163107 7.852399 6.348806 14.848435 -3.036279 0.000002 -0.000001 3.343304 -1.661959 -1.687143 -0.033345 0.000006 -0.000000 7.785496 -11.074491 0.829475 4.202806 0.000007 0.000001 2.173901 -0.839935 0.410293 -3.287973 2.676298 -1.652399 4.938295 -8.328456 4.130038 3.330395 4.299007 0.000004 -0.000001 -48.647527 -7.775492 -39.392426 -0.000003 0.000001 -10.245107 -5.045240 695.913003 6.218932 -0.000008 -0.000000 -12.703301 1244.523851 -177.413412 546.571627 -2.534598 -1.686407 5.194999 10.538169 4.396714 -4.767735 -4.144108 0.000001 0.000004 48.976729 9.053404 27.796274 0.000004 0.000009 -10.116498 25.559753 -1.899774 -1.253570 0.000003 0.000003 -12.937806 -383.789204 -356.102595 1.839897 2.175599 0.064505 -2.662895 -356.430389 -2.073248 -4.027783 0.000003 0.000003 -18.585800 178.720943 -203.718438 -165.663301 -0.000005 0.000002 -18.979515 368.814178 6.392185 -129.638971 -2.092404 -0.058106 -2.581199 321.636285 -23.424200 0.675614 -0.000004 -0.000005 -18.664997 -1096.668506 47.633439 12.194616 0.000010 -0.000010 -18.566605 731.635821 17.556976 10.207266
51.280807 38.524700 43.837093 1113.727914 -3.344370 -0.052477 -0.153499 1.163105 7.852399 6.997226 14.833456 -3.059542 0.000005 -0.000001 3.343299 -1.903428 -1.681830 -0.039083 0.000001 0.000003 7.785500 -11.615773 1.057344 4.354420 -0.000002 -0.000004 2.173902 -0.995097 0.398748 -3.466037 2.676294 -1.652388 4.938300 -8.148358 4.145724 3.390801 4.298992 -0.000002 -0.000007 -48.935744 -7.807821 -39.192800 -0.000009 0.000001 -10.245114 -5.204894 694.668761 6.313817 -0.000002 -0.000008 -12.703297 1242.799037 -177.473258 546.334100 -2.534598 -1.686391 5.195001 10.715482 4.425204 -4.691186 -4.144117 -0.000002 -0.000003 49.286696 8.170245 28.474787 0.000005 0.000008 -10.116495 26.513562 -1.908358 -1.154573 0.000005 0.000000 -12.937804 -382.743229 -356.616280 1.056174 2.175595 0.064498 -2.662899 -356.197398 -2.248835 -3.858794 -0.000006 -0.000010 -18.585798 178.239524 -204.033200 -165.727587 -0.000011 -0.000004 -18.979511 368.750329 6.352093 -129.639559 -2.092392 -0.058108 -2.581203 321.885205 -23.416358 1.083582 -0.000002 -0.000003 -18.664999 -1096.176404 47.729331 11.530584 0.000008 -0.000003 -18.566603 730.910837 17.408248 10.145391
51.269798 38.399300 43.858887 1114.210836 -3.313763 -0.130596 -0.153495 1.163092 7.852400 7.747833 14.848452 -3.213008 -0.000001 0.000005 3.343303 -2.202013 -1.684165 -0.046344 -0.000006 0.000003 7.785499 -12.092892 1.265112 4.526458 0.000000 0.000003 2.173907 -1.122588 0.422858 -3.657848 2.676297 -1.652397 4.938292 -7.939441 4.157105 3.456421 4.299002 0.000006 0.000007 -49.022945 -7.794641 -38.949704 -0.000006 -0.000004 -10.245108 -5.467903 693.340316 6.442867 -0.000006 -0.000002 -12.703300 1242.006954 -177.422483 545.784407 -2.534605 -1.686398 5.194991 10.819118 4.376368 -4.541541 -4.144106 0.000006 0.000006 49.629340 7.197291 29.100458 0.000008 0.000008 -10.116503 27.558565 -1.878817 -1.032704 0.000005 -0.000000 -12.937808 -381.327686 -357.790963 -1.323315 2.175599 0.064494 -2.662896 -356.034648 -2.344625 -3.782985 0.000005 -0.000007 -18.585796 177.885870 -204.308498 -165.862606 0.000001 0.000000 -18.979507 368.524223 6.385813 -128.872146 -2.092392 -0.058112 -2.581203 322.292066 -23.240919 1.501941 0.000002 -0.000005 -18.665010 -1094.497052 48.023565 10.134831 0.000000 -0.000009 -18.566607 729.990401 17.050249 9.979865
51.254505 38.269901 43.881191 1114.517265 -3.343249 -0.225226 -0.153503 1.163104 7.852410 8.567638 14.939196 -3.300688 -0.000002 -0.000005 3.343292 -2.480982 -1.700700 -0.052967 -0.000002 -0.000007 7.785503 -12.498992 1.469505 4.598143 -0.000002 0.000007 2.173901 -1.238868 0.440338 -3.775788 2.676296 -1.652408 4.938302 -7.840842 4.253574 3.422212 4.299000 0.000006 -0.000012 -48.906156 -7.838791 -38.774963 -0.000004 -0.000002 -10.245110 -5.856788 691.996736 6.635910 -0.000011 0.000001 -12.703293 1241.630801 -177.449366 546.097393 -2.534597 -1.686409 5.195000 10.866944 4.295202 -4.436011 -4.144108 0.000004 -0.000006 50.005727 6.162542 29.726124 -0.000000 0.000010 -10.116498 28.643798 -1.805034 -0.881534 0.000012 -0.000005 -12.937803 -379.927196 -358.716153 -3.001190 2.175589 0.064500 -2.662888 -355.886132 -2.346864 -3.707914 0.000003 -0.000003 -18.585796 177.559087 -204.550833 -166.009469 -0.000013 -0.000006 -18.979509 368.433682 6.198183 -128.731102 -2.092395 -0.058098 -2.581187 322.994100 -22.916880 2.058771 0.000003 -0.000002 -18.665001 -1091.974800 48.282481 8.106838 0.000008 0.000001 -18.566605 728.809817 16.514508 9.880463
51.229301 38.142506 43.899292 1114.697145 -3.353294 -0.274008 -0.153496 1.163104 7.852404 9.404326 14.984742 -3.404233 -0.000000 -0.000001 3.343293 -2.772358 -1.716906 -0.060110 0.000001 -0.000005 7.785501 -12.823468 1.694662 4.623466 0.000001 0.000004 2.173900 -1.308078 0.469246 -3.886016 2.676292 -1.652406 4.938296 -7.711164 4.354926 3.333571 4.298998 0.000006 -0.000007 -48.888981 -7.771926 -38.666794 -0.000010 0.000010 -10.245113 -6.219576 690.644851 6.876095 -0.000002 0.000002 -12.703298 1249.067293 -175.630528 546.491195 -2.534601 -1.686406 5.194998 10.954746 4.223418 -4.352568 -4.144098 0.000006 -0.000003 50.330868 5.040097 30.391077 -0.000003 0.000003 -10.116500 29.805682 -1.731864 -0.730898 0.000002 0.000003 -12.937796 -378.417451 -359.675439 -4.673631 2.175600 0.064502 -2.662896 -355.705761 -2.392851 -3.692035 -0.000011 0.000005 -18.585800 177.100590 -204.811296 -166.137289 -0.000008 0.000003 -18.979511 368.432698 5.915390 -128.611479 -2.092396 -0.058100 -2.581199 323.812356 -22.480258 2.589339 -0.000001 -0.000003 -18.664995 -1089.480961 48.238703 6.048679 0.000000 -0.000001 -18.566601 727.719227 15.876619 9.638891
